<svg width="86" height="83" viewBox="0 0 86 83" fill="none" xmlns="http://www.w3.org/2000/svg">
<rect width="85.5" height="82.3909" rx="22.5" fill="#F4B043"/>
<rect x="13.6558" y="44.2773" width="11.4057" height="10.9364" stroke="black" stroke-width="1.5"/>
<line x1="8.06592" y1="55.2136" x2="74.2074" y2="55.2136" stroke="black" stroke-width="1.5"/>
<rect x="16.1321" y="46.6365" width="1.61321" height="6.21818" rx="0.806604" fill="black"/>
<rect x="14.5349" y="70.5376" width="1.61321" height="7.77273" rx="0.806604" fill="black"/>
<rect x="27.4246" y="40.4182" width="1.61321" height="10.8818" rx="0.806604" fill="black"/>
<rect x="32.2642" y="40.4182" width="3.22641" height="10.8818" rx="1.61321" fill="black"/>
<rect x="38.717" y="40.4182" width="1.61321" height="10.8818" rx="0.806604" fill="black"/>
<rect x="27.4246" y="27.9819" width="1.61321" height="10.8818" rx="0.806604" fill="black"/>
<rect x="61.302" y="37.3091" width="1.61321" height="10.8818" rx="0.806604" fill="black"/>
<rect x="61.302" y="21.7637" width="1.61321" height="10.8818" rx="0.806604" fill="black"/>
<rect x="64.5283" y="37.3091" width="1.61321" height="10.8818" rx="0.806604" fill="black"/>
<rect x="64.5283" y="21.7637" width="1.61321" height="10.8818" rx="0.806604" fill="black"/>
<rect x="67.7546" y="37.3091" width="1.61321" height="10.8818" rx="0.806604" fill="black"/>
<rect x="67.7546" y="21.7637" width="1.61321" height="10.8818" rx="0.806604" fill="black"/>
<rect x="32.2642" y="27.9819" width="3.22641" height="10.8818" rx="1.61321" fill="black"/>
<rect x="38.717" y="27.9819" width="1.61321" height="10.8818" rx="0.806604" fill="black"/>
<rect x="45.1699" y="43.5273" width="1.61321" height="9.32727" rx="0.806604" fill="black"/>
<rect x="50.0095" y="43.5273" width="1.61321" height="9.32727" rx="0.806604" fill="black"/>
<rect x="54.8491" y="43.5273" width="1.61321" height="9.32727" rx="0.806604" fill="black"/>
<rect x="45" y="19" width="2" height="8" rx="1" fill="black"/>
<rect x="50" y="19" width="2" height="8" rx="1" fill="black"/>
<rect x="45" y="30" width="2" height="8" rx="1" fill="black"/>
<rect x="50" y="30" width="2" height="8" rx="1" fill="black"/>
<rect x="20.9717" y="46.6365" width="1.61321" height="6.21818" rx="0.806604" fill="black"/>
<rect x="24.948" y="25.6228" width="17.8585" height="29.5909" stroke="black" stroke-width="1.5"/>
<rect x="42.6934" y="41.1682" width="16.2453" height="14.0455" stroke="black" stroke-width="1.5"/>
<rect x="58.8254" y="19.4045" width="13.0189" height="35.8091" stroke="black" stroke-width="1.5"/>
<mask id="path-29-inside-1_594_2" fill="white">
<path d="M54.849 15.5454C54.849 13.484 54.1692 11.507 52.959 10.0493C51.7489 8.59162 50.1076 7.77271 48.3962 7.77271C46.6848 7.7727 45.0435 8.59161 43.8333 10.0493C42.6232 11.507 41.9434 13.484 41.9434 15.5454L48.3962 15.5454H54.849Z"/>
</mask>
<path d="M54.849 15.5454C54.849 13.484 54.1692 11.507 52.959 10.0493C51.7489 8.59162 50.1076 7.77271 48.3962 7.77271C46.6848 7.7727 45.0435 8.59161 43.8333 10.0493C42.6232 11.507 41.9434 13.484 41.9434 15.5454L48.3962 15.5454H54.849Z" stroke="black" stroke-width="3" mask="url(#path-29-inside-1_594_2)"/>
<mask id="path-30-inside-2_594_2" fill="white">
<path d="M50.0094 12.4364C50.0094 12.0241 49.8394 11.6287 49.5369 11.3372C49.2343 11.0456 48.824 10.8818 48.3962 10.8818C47.9683 10.8818 47.558 11.0456 47.2555 11.3372C46.9529 11.6287 46.783 12.0241 46.783 12.4364L48.3962 12.4364H50.0094Z"/>
</mask>
<path d="M50.0094 12.4364C50.0094 12.0241 49.8394 11.6287 49.5369 11.3372C49.2343 11.0456 48.824 10.8818 48.3962 10.8818C47.9683 10.8818 47.558 11.0456 47.2555 11.3372C46.9529 11.6287 46.783 12.0241 46.783 12.4364L48.3962 12.4364H50.0094Z" stroke="black" stroke-width="3" mask="url(#path-30-inside-2_594_2)"/>
<rect x="42.6934" y="14.741" width="11.4057" height="26.4818" stroke="black" stroke-width="1.5"/>
<path d="M19.5 82.08C25.2803 61.9872 34.5882 72.3228 46.5 70.29C58.4118 68.2573 61.5205 58.4663 73.5 58.5001" stroke="black" stroke-width="1.5"/>
<path d="M27 82.125C31.9775 69.6629 39.9926 76.0733 50.25 74.8125C60.5074 73.5518 63.1843 67.4791 73.5 67.5001" stroke="black" stroke-width="1.5"/>
<path d="M18.6085 62.959C18.6085 65.2346 18.1719 67.2582 17.499 68.6848C16.7986 70.1696 15.979 70.759 15.3255 70.759C14.672 70.759 13.8524 70.1696 13.152 68.6848C12.4791 67.2582 12.0425 65.2346 12.0425 62.959C12.0425 60.6592 12.4889 59.542 13.0181 58.9837C13.5284 58.4453 14.2672 58.2681 15.3255 58.2681C16.3838 58.2681 17.1226 58.4453 17.6329 58.9837C18.1621 59.542 18.6085 60.6592 18.6085 62.959Z" stroke="black" stroke-width="1.5"/>
</svg>
